<svg width="22.759653508663177" height="33.02549362182617" xmlns="http://www.w3.org/2000/svg" xmlns:svg="http://www.w3.org/2000/svg">
 <g>
  <title>Layer 1</title>
  <g id="svg_6" stroke="null">
   <g id="svg_1" stroke="null">
    <circle id="svg_2" r="9.21683" cy="12.1802" cx="11.36483" fill="#FCFCFC" stroke="null"/>
    <g id="svg_3" stroke="null">
     <g id="Layer_3" stroke="null">
      <path id="svg_4" d="m11.40828,0c7.49378,0 12.81545,6.91013 10.99088,14.47628c-0.58647,2.40542 -1.56392,4.76711 -2.64997,6.9976c-1.93318,3.95802 -4.53971,7.47868 -7.34173,10.84628c-0.69508,0.85283 -1.2381,0.9403 -1.82457,0.21867c-4.0184,-4.81085 -7.58066,-9.88411 -9.64417,-15.89767c-0.99917,-2.93024 -1.34671,-5.92609 -0.28237,-8.96567c1.60736,-4.59217 5.90814,-7.67549 10.75195,-7.67549l-0.00002,0zm9.55728,11.5023c0.02172,-5.3138 -4.25734,-9.6217 -9.53556,-9.64357c-5.27823,-0.02187 -9.57901,4.26416 -9.57901,9.57796c-0.02172,5.29193 4.23561,9.6217 9.49212,9.64357c5.25651,0.04373 9.55728,-4.19856 9.60073,-9.49049c0,-0.02187 0,-0.0656 0.02172,-0.08747l0,0z" fill="#277C7A" stroke="null"/>
      <path id="svg_5" d="m3.21942,8.17844c2.62825,0 5.10446,0.32801 7.12452,2.66783c0.15205,-2.27422 0.47786,-4.3079 2.41104,-5.55434c1.45531,-0.96217 3.0844,-1.20271 4.77864,-1.13711c0.8254,4.04549 -1.62908,7.65362 -4.97413,7.43495c-0.10861,-1.31205 0.02172,-1.61819 1.86801,-4.59217c-2.38932,1.04964 -3.14956,3.67374 -2.71514,9.59983l5.47372,1.39952c-3.77947,3.45506 -9.62245,2.40542 -11.85972,0.15307l4.71348,-1.77127c0.62991,-2.33982 -0.52131,-4.74525 -2.91063,-5.86049l2.25899,3.54253c-2.95407,0.39361 -5.71265,-1.6838 -6.12535,-4.67964c-0.06516,-0.39361 -0.06516,-0.8091 -0.04344,-1.20271l0.00001,0z" fill="#277C7A" stroke="null"/>
     </g>
    </g>
   </g>
  </g>
 </g>
</svg>